<?xml version="1.0" encoding="UTF-8" standalone="no"?>
<!-- Created with Inkscape (http://www.inkscape.org/) -->

<svg
   width="135.00014mm"
   height="135mm"
   viewBox="0 0 135.00014 135"
   version="1.1"
   id="svg5"
   inkscape:export-filename="bitmap.png"
   inkscape:export-xdpi="96"
   inkscape:export-ydpi="96"
   inkscape:version="1.2.2 (732a01da63, 2022-12-09)"
   sodipodi:docname="icon.svg"
   xmlns:inkscape="http://www.inkscape.org/namespaces/inkscape"
   xmlns:sodipodi="http://sodipodi.sourceforge.net/DTD/sodipodi-0.dtd"
   xmlns:xlink="http://www.w3.org/1999/xlink"
   xmlns="http://www.w3.org/2000/svg"
   xmlns:svg="http://www.w3.org/2000/svg">
  <sodipodi:namedview
     id="namedview7"
     pagecolor="#ffffff"
     bordercolor="#999999"
     borderopacity="1"
     inkscape:showpageshadow="0"
     inkscape:pageopacity="0"
     inkscape:pagecheckerboard="0"
     inkscape:deskcolor="#d1d1d1"
     inkscape:document-units="mm"
     showgrid="false"
     inkscape:zoom="0.36925856"
     inkscape:cx="312.78896"
     inkscape:cy="251.85605"
     inkscape:window-width="1920"
     inkscape:window-height="1009"
     inkscape:window-x="-8"
     inkscape:window-y="-8"
     inkscape:window-maximized="1"
     inkscape:current-layer="svg5" />
  <defs
     id="defs2">
    <linearGradient
       inkscape:collect="always"
       id="linearGradient1358">
      <stop
         style="stop-color:#6323c0;stop-opacity:1;"
         offset="0"
         id="stop1354" />
      <stop
         style="stop-color:#ffb380;stop-opacity:0;"
         offset="1"
         id="stop1356" />
    </linearGradient>
    <linearGradient
       inkscape:collect="always"
       id="linearGradient965">
      <stop
         style="stop-color:#000000;stop-opacity:1;"
         offset="0"
         id="stop961" />
      <stop
         style="stop-color:#000000;stop-opacity:0;"
         offset="1"
         id="stop963" />
    </linearGradient>
    <linearGradient
       inkscape:collect="always"
       xlink:href="#linearGradient965"
       id="linearGradient967"
       x1="133.25168"
       y1="135.02498"
       x2="81.065659"
       y2="75.492393"
       gradientUnits="userSpaceOnUse"
       gradientTransform="translate(-39.519507,-53.452666)" />
    <linearGradient
       inkscape:collect="always"
       xlink:href="#linearGradient1358"
       id="linearGradient1360"
       x1="170.49121"
       y1="9.3732166"
       x2="-7.093245"
       y2="133.75833"
       gradientUnits="userSpaceOnUse" />
  </defs>
  <g
     inkscape:label="Layer 1"
     inkscape:groupmode="layer"
     id="layer1"
     style="display:inline">
    <rect
       style="fill:url(#linearGradient1360);fill-opacity:1;stroke-width:0.264583"
       id="rect126"
       width="128"
       height="128"
       x="3.3161912"
       y="3.6775446"
       ry="33.975101" />
    <ellipse
       style="fill:#ffffff;stroke-width:0.362899"
       id="path1073"
       cx="69.41246"
       cy="67.892487"
       rx="18.746431"
       ry="20.013083" />
    <ellipse
       style="fill:#000000;stroke-width:0.384533"
       id="path1075"
       cx="75.492386"
       cy="67.005814"
       rx="8.3598957"
       ry="8.7398911" />
  </g>
  <path
     style="fill:#552200;stroke-width:0.318872"
     id="path1319"
     d="m 21.936614,63.140338 c 4.859108,-1.09745 9.148648,-4.152508 13.337051,-7.032317 4.183393,-2.947672 8.08158,-6.5547 12.677921,-8.672473 0.882594,-0.406655 1.801734,-0.700199 2.702612,-1.050297 5.456192,-1.509873 11.077966,-1.913037 16.657261,-2.376565 5.829407,-0.484313 4.177415,-0.355158 9.950314,-0.625879 2.617418,0.05738 4.052601,0.02198 6.871729,0.488761 4.018453,0.665361 8.071515,2.027578 11.722855,4.073194 1.033517,0.579013 1.997624,1.308225 2.996431,1.962335 2.346572,1.870632 4.219922,4.233923 5.673252,7.044276 1.09456,2.1166 1.84833,4.43982 2.66169,6.706728 0.58589,1.661413 0.31136,0.954664 0.79262,2.135691 0.0444,0.414338 5.15815,-0.304998 5.11376,-0.719337 v 0 c 0.0522,-1.901135 0.0831,-0.867358 -0.16364,-3.097466 -0.39975,-2.089664 -0.54097,-3.129168 -1.22192,-5.230548 -1.16588,-3.597889 -2.87367,-7.004729 -5.10467,-9.880438 -0.88596,-1.141997 -1.90496,-2.138783 -2.85745,-3.208174 -1.17157,-0.94493 -2.28122,-1.999736 -3.51473,-2.83479 -4.09866,-2.774686 -8.754886,-4.405061 -13.405358,-5.415931 -1.600574,-0.347915 -3.212981,-0.657016 -4.837413,-0.798554 -2.336928,-0.203622 -4.685341,-0.156876 -7.028011,-0.235312 -4.196633,0.185589 -6.274938,0.180053 -10.462801,0.76042 -5.93131,0.821984 -11.828731,2.296574 -17.421762,4.721807 -2.562148,1.256699 -3.266325,1.537733 -5.701035,2.97544 -3.683551,2.175146 -7.139529,4.806219 -10.600664,7.405103 -3.490812,2.606716 -7.034586,5.118163 -10.507205,7.757299 -0.317619,0.135245 1.351543,5.282271 1.669163,5.147027 z" />
  <path
     style="fill:#2b1100;stroke-width:0.30713"
     id="path1325"
     d="m 25.641192,75.194269 c -0.107201,3.259659 1.023423,6.384049 2.616233,9.110711 0.383701,0.656827 0.830639,1.268139 1.245953,1.902212 1.846617,2.524753 4.15192,4.583319 6.782495,6.095969 1.288308,0.740812 2.137101,1.040266 3.482374,1.593449 3.063819,0.964695 6.060578,2.173864 9.132043,3.110345 0.831679,0.253577 1.672513,0.470844 2.508763,0.706265 0.865538,0.176906 1.727533,0.375343 2.596626,0.530715 0.689231,0.123217 4.475179,0.673109 5.15919,0.767564 2.139873,0.295505 4.102825,0.563176 6.265044,0.70978 1.182627,0.08019 2.368238,0.09642 3.552351,0.14464 4.127216,0.129133 8.218695,-0.224635 12.264241,-1.089014 3.317525,-0.708833 6.559395,-1.731541 9.795452,-2.775545 4.048173,-1.268034 7.666545,-3.577231 11.327613,-5.75235 4.40003,-2.614158 1.74432,-0.832067 5.9702,-3.905529 2.15203,-1.808197 4.30593,-3.772954 5.59339,-6.431226 0.27266,-0.562949 -0.86153,-15.632539 -0.65895,-16.2289 0.15017,-0.378447 0.98865,-0.07328 -2.17657,0.243242 l -2.5333,0.25333 c -1.58165,0.158165 -0.004,5.843496 -0.77197,10.48976 -0.51238,3.101444 -3.33364,5.599455 -4.18458,6.198411 -0.44325,0.323086 -4.869062,3.557779 -5.337529,3.864868 -3.25771,2.135534 -6.865306,3.521182 -10.483957,4.748801 -2.116577,0.673326 -3.907727,1.286422 -6.062165,1.801515 -3.597535,0.860125 -7.259883,1.180484 -10.9374,1.265512 -3.141543,0.06179 -6.308718,0.243659 -9.448797,0.03161 C 58.904746,92.416086 56.488508,91.98063 54.08878,91.540291 50.294827,90.765675 46.489462,89.979207 42.798218,88.737874 39.685136,87.382607 36.852856,85.756171 34.576136,83.02154 34.24067,82.540081 33.88439,82.074687 33.569727,81.577164 32.235274,79.467243 31.276675,77.141038 30.452699,74.75887 c -0.0285,-0.366876 -4.840056,0.06853 -4.811507,0.435403 z"
     sodipodi:nodetypes="sscscscssscscscscssscccscscccscss" />
  <g
     inkscape:groupmode="layer"
     id="layer2"
     inkscape:label="Layer 2">
    <path
       style="display:none;fill:url(#linearGradient967);fill-opacity:1;stroke-width:0.264583"
       d="M 112.89342,61.062544 C 109.22397,56.599351 104.76397,52.863027 100.19959,49.351087 96.082224,46.570918 90.915,46.257784 86.147614,45.473905 79.62325,44.696124 73.092479,45.956509 66.698562,47.137893 c -5.850231,1.268704 -11.299468,3.809213 -16.81067,6.045933 -4.281906,2.361896 -8.587787,4.762774 -12.508412,7.701378 -3.961636,2.934913 -6.141214,7.801215 -10.462984,10.260124 -3.834408,0.604708 0.668418,5.916953 2.098069,7.893786 2.007002,2.881998 4.840619,4.959451 7.920189,6.558283 5.702841,4.239268 13.004627,4.333595 19.78577,4.784879 11.34637,1.691306 22.813063,-0.201031 34.101438,-1.49968 7.383803,-1.318589 14.442098,-4.603055 20.080328,-9.55633 2.15671,-2.175611 4.12864,-4.684258 5.3079,-7.497889 0.79162,-3.050977 0.40804,-6.621021 1.95031,-9.339043"
       id="path928" />
  </g>
  <g
     inkscape:groupmode="layer"
     id="layer3"
     inkscape:label="Layer 3" />
</svg>
